<mxfile host="app.diagrams.net" modified="2024-05-03T02:19:08.601Z" agent="Mozilla/5.0 (Windows NT 10.0; Win64; x64) AppleWebKit/537.36 (KHTML, like Gecko) Chrome/124.0.0.0 Safari/537.36" etag="Z1iMCYyyikg4oaFZnCSc" version="24.3.1" type="github">
  <diagram name="หน้า-1" id="64bvUflA0MraFI3ZCzwb">
    <mxGraphModel dx="2767" dy="1819" grid="1" gridSize="10" guides="1" tooltips="1" connect="1" arrows="1" fold="1" page="0" pageScale="1" pageWidth="827" pageHeight="1169" math="0" shadow="0">
      <root>
        <mxCell id="0" />
        <mxCell id="1" parent="0" />
        <mxCell id="-kETuEgQLyBXeXhdQXdZ-1" value="&lt;font color=&quot;#000063&quot; size=&quot;1&quot;&gt;&lt;b style=&quot;font-size: 43px;&quot;&gt;กรอบแนวคิดระบบ&lt;/b&gt;&lt;/font&gt;" style="rounded=1;whiteSpace=wrap;html=1;fontFamily=K2D;fontSource=https%3A%2F%2Ffonts.googleapis.com%2Fcss%3Ffamily%3DK2D;fontSize=20;fillColor=#fad9d5;strokeColor=#ae4132;dashed=1;dashPattern=1 1;fontStyle=0" parent="1" vertex="1">
          <mxGeometry x="-450" y="-920" width="580" height="120" as="geometry" />
        </mxCell>
        <mxCell id="-kETuEgQLyBXeXhdQXdZ-2" value="&lt;p style=&quot;line-height: 120%;&quot;&gt;&lt;/p&gt;&lt;ul style=&quot;font-size: 19px;&quot;&gt;&lt;li style=&quot;font-size: 19px;&quot;&gt;อัลกอลิทึม&lt;/li&gt;&lt;/ul&gt;&lt;p&gt;&lt;/p&gt;" style="text;strokeColor=#6c8ebf;fillColor=#dae8fc;html=1;whiteSpace=wrap;verticalAlign=middle;overflow=hidden;fontFamily=K2D;fontSource=https%3A%2F%2Ffonts.googleapis.com%2Fcss%3Ffamily%3DK2D;fontSize=19;labelBorderColor=none;perimeterSpacing=11;dashed=1;strokeWidth=3;rounded=1;glass=0;" parent="1" vertex="1">
          <mxGeometry x="-720" y="-760" width="200" height="122" as="geometry" />
        </mxCell>
        <mxCell id="-kETuEgQLyBXeXhdQXdZ-3" value="&lt;p style=&quot;line-height: 120%;&quot;&gt;&lt;/p&gt;&lt;ul style=&quot;font-size: 19px;&quot;&gt;&lt;li style=&quot;font-size: 19px;&quot;&gt;เซอร์วิส API&lt;/li&gt;&lt;/ul&gt;&lt;p&gt;&lt;/p&gt;" style="text;strokeColor=#d6b656;fillColor=#fff2cc;html=1;whiteSpace=wrap;verticalAlign=middle;overflow=hidden;fontFamily=K2D;fontSource=https%3A%2F%2Ffonts.googleapis.com%2Fcss%3Ffamily%3DK2D;fontSize=19;labelBorderColor=none;perimeterSpacing=11;dashed=1;strokeWidth=3;rounded=1;glass=0;" parent="1" vertex="1">
          <mxGeometry x="50" y="-730" width="190" height="116" as="geometry" />
        </mxCell>
        <mxCell id="-kETuEgQLyBXeXhdQXdZ-4" value="&lt;p style=&quot;line-height: 120%;&quot;&gt;&lt;/p&gt;&lt;ul style=&quot;font-size: 19px;&quot;&gt;&lt;li&gt;แดชบอร์ด&lt;/li&gt;&lt;/ul&gt;&lt;p&gt;&lt;/p&gt;" style="text;strokeColor=#82b366;fillColor=#d5e8d4;html=1;whiteSpace=wrap;verticalAlign=middle;overflow=hidden;fontFamily=K2D;fontSource=https%3A%2F%2Ffonts.googleapis.com%2Fcss%3Ffamily%3DK2D;fontSize=19;labelBorderColor=none;perimeterSpacing=11;dashed=1;strokeWidth=3;rounded=1;glass=0;" parent="1" vertex="1">
          <mxGeometry x="830" y="-730" width="210" height="116" as="geometry" />
        </mxCell>
        <mxCell id="-kETuEgQLyBXeXhdQXdZ-5" value="รับ INPUT Coordinate&lt;div&gt;&lt;ul&gt;&lt;li&gt;Latitude&lt;/li&gt;&lt;li&gt;Longitude&lt;/li&gt;&lt;/ul&gt;&lt;/div&gt;" style="text;strokeColor=#6c8ebf;fillColor=#dae8fc;html=1;whiteSpace=wrap;verticalAlign=middle;overflow=hidden;fontFamily=K2D;fontSource=https%3A%2F%2Ffonts.googleapis.com%2Fcss%3Ffamily%3DK2D;fontSize=19;labelBorderColor=none;perimeterSpacing=11;dashed=1;strokeWidth=3;rounded=1;glass=0;align=center;" parent="1" vertex="1">
          <mxGeometry x="-600" y="-540" width="230" height="130" as="geometry" />
        </mxCell>
        <mxCell id="-kETuEgQLyBXeXhdQXdZ-6" value="ค้นหาพื้นที่ ผ่าน API จาก Global Forest Watch&lt;div&gt;&lt;ul&gt;&lt;li&gt;Tree Cover Loss from Global Forest Watch&amp;nbsp;&lt;/li&gt;&lt;li&gt;Protected Forests and Conservation Areas&amp;nbsp;&lt;/li&gt;&lt;li&gt;Global land Analysis and Discover (GLAD) Alerts Quarterly)&lt;/li&gt;&lt;/ul&gt;&lt;/div&gt;" style="text;strokeColor=#6c8ebf;fillColor=#dae8fc;html=1;whiteSpace=wrap;verticalAlign=middle;overflow=hidden;fontFamily=K2D;fontSource=https%3A%2F%2Ffonts.googleapis.com%2Fcss%3Ffamily%3DK2D;fontSize=19;labelBorderColor=none;perimeterSpacing=11;dashed=1;strokeWidth=3;rounded=1;glass=0;align=center;" parent="1" vertex="1">
          <mxGeometry x="-690" y="-320" width="410" height="180" as="geometry" />
        </mxCell>
        <mxCell id="-kETuEgQLyBXeXhdQXdZ-7" value="ส่งคืนผลลัพธ์หลังการประมวลผลจาก Global Forest Watch" style="text;strokeColor=#6c8ebf;fillColor=#dae8fc;html=1;whiteSpace=wrap;verticalAlign=middle;overflow=hidden;fontFamily=K2D;fontSource=https%3A%2F%2Ffonts.googleapis.com%2Fcss%3Ffamily%3DK2D;fontSize=19;labelBorderColor=none;perimeterSpacing=11;dashed=1;strokeWidth=3;rounded=1;glass=0;align=center;" parent="1" vertex="1">
          <mxGeometry x="-600" y="-70" width="230" height="130" as="geometry" />
        </mxCell>
        <mxCell id="-kETuEgQLyBXeXhdQXdZ-8" value="รับค่า INPUT&lt;div&gt;จาก ผู้ใช้&lt;/div&gt;" style="text;strokeColor=#d6b656;fillColor=#fff2cc;html=1;whiteSpace=wrap;verticalAlign=middle;overflow=hidden;fontFamily=K2D;fontSource=https%3A%2F%2Ffonts.googleapis.com%2Fcss%3Ffamily%3DK2D;fontSize=19;labelBorderColor=none;perimeterSpacing=11;dashed=1;strokeWidth=3;rounded=1;glass=0;align=center;" parent="1" vertex="1">
          <mxGeometry x="50" y="-533" width="190" height="116" as="geometry" />
        </mxCell>
        <mxCell id="-kETuEgQLyBXeXhdQXdZ-9" value="ค้นหาพื้นที่ ผ่าน API จาก Global Forest Watch&lt;div&gt;&lt;ul&gt;&lt;li&gt;Tree Cover Loss from Global Forest Watch&amp;nbsp;&lt;/li&gt;&lt;li&gt;Protected Forests and Conservation Areas&amp;nbsp;&lt;/li&gt;&lt;li&gt;Global land Analysis and Discover (GLAD) Alerts Quarterly)&lt;/li&gt;&lt;/ul&gt;&lt;/div&gt;" style="text;strokeColor=#6c8ebf;fillColor=#dae8fc;html=1;whiteSpace=wrap;verticalAlign=middle;overflow=hidden;fontFamily=K2D;fontSource=https%3A%2F%2Ffonts.googleapis.com%2Fcss%3Ffamily%3DK2D;fontSize=19;labelBorderColor=none;perimeterSpacing=11;dashed=1;strokeWidth=3;rounded=1;glass=0;align=center;" parent="1" vertex="1">
          <mxGeometry x="-50" y="-330" width="410" height="180" as="geometry" />
        </mxCell>
        <mxCell id="-kETuEgQLyBXeXhdQXdZ-10" value="ส่งคืนผลลัพธ์หลังการประมวลผลจาก Global Forest Watch&lt;div&gt;&lt;br&gt;&lt;div&gt;ให้ ผู้ใช้&lt;/div&gt;&lt;/div&gt;" style="text;strokeColor=#d6b656;fillColor=#fff2cc;html=1;whiteSpace=wrap;verticalAlign=middle;overflow=hidden;fontFamily=K2D;fontSource=https%3A%2F%2Ffonts.googleapis.com%2Fcss%3Ffamily%3DK2D;fontSize=19;labelBorderColor=none;perimeterSpacing=11;dashed=1;strokeWidth=3;rounded=1;glass=0;align=center;" parent="1" vertex="1">
          <mxGeometry x="-25" y="-70" width="340" height="116" as="geometry" />
        </mxCell>
        <mxCell id="-kETuEgQLyBXeXhdQXdZ-11" value="รับค่า INPUT&lt;div&gt;จาก ผู้ใช้&lt;/div&gt;" style="text;strokeColor=#d6b656;fillColor=#fff2cc;html=1;whiteSpace=wrap;verticalAlign=middle;overflow=hidden;fontFamily=K2D;fontSource=https%3A%2F%2Ffonts.googleapis.com%2Fcss%3Ffamily%3DK2D;fontSize=19;labelBorderColor=none;perimeterSpacing=11;dashed=1;strokeWidth=3;rounded=1;glass=0;align=center;" parent="1" vertex="1">
          <mxGeometry x="840" y="-529.5" width="190" height="116" as="geometry" />
        </mxCell>
        <mxCell id="-kETuEgQLyBXeXhdQXdZ-12" value="ค้นหาพื้นที่ ผ่าน API จาก Global Forest Watch&lt;div&gt;&lt;ul&gt;&lt;li&gt;Tree Cover Loss from Global Forest Watch&amp;nbsp;&lt;/li&gt;&lt;li&gt;Protected Forests and Conservation Areas&amp;nbsp;&lt;/li&gt;&lt;li&gt;Global land Analysis and Discover (GLAD) Alerts Quarterly)&lt;/li&gt;&lt;/ul&gt;&lt;/div&gt;" style="text;strokeColor=#6c8ebf;fillColor=#dae8fc;html=1;whiteSpace=wrap;verticalAlign=middle;overflow=hidden;fontFamily=K2D;fontSource=https%3A%2F%2Ffonts.googleapis.com%2Fcss%3Ffamily%3DK2D;fontSize=19;labelBorderColor=none;perimeterSpacing=11;dashed=1;strokeWidth=3;rounded=1;glass=0;align=center;" parent="1" vertex="1">
          <mxGeometry x="740" y="-326.5" width="410" height="180" as="geometry" />
        </mxCell>
        <mxCell id="-kETuEgQLyBXeXhdQXdZ-13" value="ส่งคืนผลลัพธ์หลังการประมวลผลจาก Global Forest Watch&lt;div&gt;&lt;br&gt;&lt;div&gt;ให้ ผู้ใช้&lt;/div&gt;&lt;/div&gt;" style="text;strokeColor=#d6b656;fillColor=#fff2cc;html=1;whiteSpace=wrap;verticalAlign=middle;overflow=hidden;fontFamily=K2D;fontSource=https%3A%2F%2Ffonts.googleapis.com%2Fcss%3Ffamily%3DK2D;fontSize=19;labelBorderColor=none;perimeterSpacing=11;dashed=1;strokeWidth=3;rounded=1;glass=0;align=center;" parent="1" vertex="1">
          <mxGeometry x="765" y="-66.5" width="340" height="116" as="geometry" />
        </mxCell>
        <mxCell id="-kETuEgQLyBXeXhdQXdZ-14" value="&lt;p style=&quot;line-height: 120%;&quot;&gt;&lt;/p&gt;&lt;div style=&quot;text-align: center;&quot;&gt;แสดงข้อมูลสรุปผลผ่านหน้าเว็บไซต์&lt;/div&gt;&lt;div style=&quot;text-align: center;&quot;&gt;&lt;br&gt;&lt;/div&gt;&lt;div style=&quot;text-align: center;&quot;&gt;ของ เรา&lt;/div&gt;&lt;p&gt;&lt;/p&gt;" style="text;strokeColor=#82b366;fillColor=#d5e8d4;html=1;whiteSpace=wrap;verticalAlign=middle;overflow=hidden;fontFamily=K2D;fontSource=https%3A%2F%2Ffonts.googleapis.com%2Fcss%3Ffamily%3DK2D;fontSize=19;labelBorderColor=none;perimeterSpacing=11;dashed=1;strokeWidth=3;rounded=1;glass=0;" parent="1" vertex="1">
          <mxGeometry x="830" y="130" width="210" height="130" as="geometry" />
        </mxCell>
        <mxCell id="oew9Gi4oSbYE5qJd6fxE-10" style="edgeStyle=orthogonalEdgeStyle;rounded=0;orthogonalLoop=1;jettySize=auto;html=1;" edge="1" parent="1">
          <mxGeometry relative="1" as="geometry">
            <mxPoint x="-1150" y="610" as="sourcePoint" />
            <mxPoint x="-870" y="610" as="targetPoint" />
          </mxGeometry>
        </mxCell>
        <mxCell id="oew9Gi4oSbYE5qJd6fxE-1" value="&lt;font style=&quot;font-size: 16px;&quot; data-font-src=&quot;https://fonts.googleapis.com/css?family=k2d&quot; face=&quot;k2d&quot;&gt;&lt;b&gt;Geo-Rubber&lt;/b&gt;&lt;/font&gt;" style="rounded=1;whiteSpace=wrap;html=1;" vertex="1" parent="1">
          <mxGeometry x="-1300" y="595" width="150" height="70" as="geometry" />
        </mxCell>
        <mxCell id="oew9Gi4oSbYE5qJd6fxE-4" value="" style="rounded=1;whiteSpace=wrap;html=1;" vertex="1" parent="1">
          <mxGeometry x="-895" y="830" width="190" height="120" as="geometry" />
        </mxCell>
        <mxCell id="oew9Gi4oSbYE5qJd6fxE-12" style="edgeStyle=orthogonalEdgeStyle;rounded=0;orthogonalLoop=1;jettySize=auto;html=1;startArrow=classic;startFill=1;endArrow=none;endFill=0;" edge="1" parent="1">
          <mxGeometry relative="1" as="geometry">
            <mxPoint x="-820" y="675" as="sourcePoint" />
            <mxPoint x="-820" y="830" as="targetPoint" />
          </mxGeometry>
        </mxCell>
        <mxCell id="oew9Gi4oSbYE5qJd6fxE-9" value="&lt;font style=&quot;font-size: 14px;&quot; face=&quot;k2d&quot;&gt;&lt;u&gt;&lt;b&gt;Backend&lt;/b&gt;&lt;/u&gt;&lt;/font&gt;&lt;div style=&quot;font-size: 14px;&quot;&gt;&lt;font face=&quot;k2d&quot;&gt;Map Rubber&lt;/font&gt;&lt;/div&gt;" style="shape=cylinder3;whiteSpace=wrap;html=1;boundedLbl=1;backgroundOutline=1;size=15;" vertex="1" parent="1">
          <mxGeometry x="-870" y="585" width="140" height="90" as="geometry" />
        </mxCell>
        <mxCell id="oew9Gi4oSbYE5qJd6fxE-11" style="edgeStyle=orthogonalEdgeStyle;rounded=0;orthogonalLoop=1;jettySize=auto;html=1;startArrow=classic;startFill=1;endArrow=none;endFill=0;" edge="1" parent="1">
          <mxGeometry relative="1" as="geometry">
            <mxPoint x="-1150" y="650" as="sourcePoint" />
            <mxPoint x="-870" y="650" as="targetPoint" />
          </mxGeometry>
        </mxCell>
        <mxCell id="oew9Gi4oSbYE5qJd6fxE-13" style="edgeStyle=orthogonalEdgeStyle;rounded=0;orthogonalLoop=1;jettySize=auto;html=1;" edge="1" parent="1">
          <mxGeometry relative="1" as="geometry">
            <mxPoint x="-780" y="675" as="sourcePoint" />
            <mxPoint x="-780" y="830" as="targetPoint" />
          </mxGeometry>
        </mxCell>
        <mxCell id="oew9Gi4oSbYE5qJd6fxE-14" value="&lt;font data-font-src=&quot;https://fonts.googleapis.com/css?family=k2d&quot; face=&quot;k2d&quot;&gt;POST API {lattitude,longtitude}&lt;/font&gt;" style="text;html=1;align=center;verticalAlign=middle;whiteSpace=wrap;rounded=0;" vertex="1" parent="1">
          <mxGeometry x="-1120" y="585" width="210" height="30" as="geometry" />
        </mxCell>
        <mxCell id="oew9Gi4oSbYE5qJd6fxE-15" value="&lt;font data-font-src=&quot;https://fonts.googleapis.com/css?family=k2d&quot; face=&quot;k2d&quot;&gt;API Response Result&amp;nbsp;&lt;/font&gt;" style="text;html=1;align=center;verticalAlign=middle;whiteSpace=wrap;rounded=0;" vertex="1" parent="1">
          <mxGeometry x="-1120" y="650" width="210" height="30" as="geometry" />
        </mxCell>
        <mxCell id="oew9Gi4oSbYE5qJd6fxE-16" value="&lt;font face=&quot;k2d&quot; data-font-src=&quot;https://fonts.googleapis.com/css?family=k2d&quot;&gt;POST API {lattitude,longtitude}&lt;/font&gt;" style="text;html=1;align=left;verticalAlign=middle;whiteSpace=wrap;rounded=0;rotation=0;" vertex="1" parent="1">
          <mxGeometry x="-770" y="730" width="150" height="30" as="geometry" />
        </mxCell>
        <mxCell id="oew9Gi4oSbYE5qJd6fxE-17" value="&lt;span style=&quot;font-family: k2d; text-align: center;&quot;&gt;Response Result&lt;/span&gt;" style="text;html=1;align=right;verticalAlign=middle;whiteSpace=wrap;rounded=0;rotation=0;" vertex="1" parent="1">
          <mxGeometry x="-980" y="730" width="150" height="30" as="geometry" />
        </mxCell>
        <mxCell id="oew9Gi4oSbYE5qJd6fxE-18" value="&lt;font style=&quot;font-size: 18px;&quot; data-font-src=&quot;https://fonts.googleapis.com/css?family=k2d&quot; face=&quot;k2d&quot;&gt;&lt;b&gt;&lt;u&gt;Flow2&lt;/u&gt;&lt;/b&gt;&lt;/font&gt;" style="text;html=1;align=center;verticalAlign=middle;whiteSpace=wrap;rounded=0;" vertex="1" parent="1">
          <mxGeometry x="-1300" y="530" width="60" height="30" as="geometry" />
        </mxCell>
        <mxCell id="oew9Gi4oSbYE5qJd6fxE-19" value="&lt;font style=&quot;font-size: 18px;&quot; data-font-src=&quot;https://fonts.googleapis.com/css?family=k2d&quot; face=&quot;k2d&quot;&gt;&lt;b&gt;&lt;u&gt;Flow2&lt;/u&gt;&lt;/b&gt;&lt;/font&gt;" style="text;html=1;align=center;verticalAlign=middle;whiteSpace=wrap;rounded=0;" vertex="1" parent="1">
          <mxGeometry x="-1300" y="1010" width="60" height="30" as="geometry" />
        </mxCell>
        <mxCell id="oew9Gi4oSbYE5qJd6fxE-22" value="&lt;font size=&quot;1&quot; data-font-src=&quot;https://fonts.googleapis.com/css?family=k2d&quot; face=&quot;k2d&quot;&gt;&lt;b style=&quot;font-size: 16px;&quot;&gt;Global Forest Watch&lt;/b&gt;&lt;/font&gt;" style="text;html=1;align=center;verticalAlign=middle;whiteSpace=wrap;rounded=0;" vertex="1" parent="1">
          <mxGeometry x="-882.5" y="840" width="165" height="30" as="geometry" />
        </mxCell>
        <mxCell id="oew9Gi4oSbYE5qJd6fxE-23" value="&lt;font data-font-src=&quot;https://fonts.googleapis.com/css?family=k2d&quot; face=&quot;k2d&quot;&gt;1. Tree Cover Loss&lt;/font&gt;&lt;div&gt;&lt;font face=&quot;k2d&quot;&gt;2. Protected Forest and Conservation Areas&lt;/font&gt;&lt;/div&gt;&lt;div&gt;&lt;font face=&quot;k2d&quot;&gt;3. GLAD Alerts&lt;/font&gt;&lt;/div&gt;" style="text;html=1;align=left;verticalAlign=middle;whiteSpace=wrap;rounded=0;rotation=0;" vertex="1" parent="1">
          <mxGeometry x="-880" y="870" width="160" height="60" as="geometry" />
        </mxCell>
        <mxCell id="oew9Gi4oSbYE5qJd6fxE-24" value="&lt;font style=&quot;font-size: 16px;&quot; data-font-src=&quot;https://fonts.googleapis.com/css?family=k2d&quot; face=&quot;k2d&quot;&gt;&lt;b&gt;Geo-Rubber&lt;/b&gt;&lt;/font&gt;" style="rounded=1;whiteSpace=wrap;html=1;" vertex="1" parent="1">
          <mxGeometry x="-1300" y="1060" width="150" height="70" as="geometry" />
        </mxCell>
        <mxCell id="oew9Gi4oSbYE5qJd6fxE-37" style="edgeStyle=orthogonalEdgeStyle;rounded=0;orthogonalLoop=1;jettySize=auto;html=1;entryX=0;entryY=0.5;entryDx=0;entryDy=0;" edge="1" parent="1">
          <mxGeometry relative="1" as="geometry">
            <mxPoint x="-950" y="1080" as="sourcePoint" />
            <mxPoint x="-840" y="1080" as="targetPoint" />
          </mxGeometry>
        </mxCell>
        <mxCell id="oew9Gi4oSbYE5qJd6fxE-25" value="" style="shape=cylinder3;whiteSpace=wrap;html=1;boundedLbl=1;backgroundOutline=1;size=15;" vertex="1" parent="1">
          <mxGeometry x="-1010" y="1060" width="60" height="70" as="geometry" />
        </mxCell>
        <mxCell id="oew9Gi4oSbYE5qJd6fxE-32" style="edgeStyle=orthogonalEdgeStyle;rounded=0;orthogonalLoop=1;jettySize=auto;html=1;entryX=0.5;entryY=0;entryDx=0;entryDy=0;" edge="1" parent="1">
          <mxGeometry relative="1" as="geometry">
            <mxPoint x="-780.0000000000002" y="1130" as="sourcePoint" />
            <mxPoint x="-780.0000000000002" y="1270" as="targetPoint" />
          </mxGeometry>
        </mxCell>
        <mxCell id="oew9Gi4oSbYE5qJd6fxE-26" value="&lt;font style=&quot;font-size: 16px;&quot; data-font-src=&quot;https://fonts.googleapis.com/css?family=k2d&quot; face=&quot;k2d&quot;&gt;&lt;b&gt;Map Rubber&lt;/b&gt;&lt;/font&gt;" style="rounded=1;whiteSpace=wrap;html=1;" vertex="1" parent="1">
          <mxGeometry x="-840" y="1060" width="190" height="70" as="geometry" />
        </mxCell>
        <mxCell id="oew9Gi4oSbYE5qJd6fxE-31" value="" style="group" vertex="1" connectable="0" parent="1">
          <mxGeometry x="-840" y="1270" width="190" height="120" as="geometry" />
        </mxCell>
        <mxCell id="oew9Gi4oSbYE5qJd6fxE-27" value="" style="rounded=1;whiteSpace=wrap;html=1;" vertex="1" parent="oew9Gi4oSbYE5qJd6fxE-31">
          <mxGeometry width="190" height="120" as="geometry" />
        </mxCell>
        <mxCell id="oew9Gi4oSbYE5qJd6fxE-28" value="&lt;font size=&quot;1&quot; data-font-src=&quot;https://fonts.googleapis.com/css?family=k2d&quot; face=&quot;k2d&quot;&gt;&lt;b style=&quot;font-size: 16px;&quot;&gt;Global Forest Watch&lt;/b&gt;&lt;/font&gt;" style="text;html=1;align=center;verticalAlign=middle;whiteSpace=wrap;rounded=0;" vertex="1" parent="oew9Gi4oSbYE5qJd6fxE-31">
          <mxGeometry x="12.5" y="10" width="165" height="30" as="geometry" />
        </mxCell>
        <mxCell id="oew9Gi4oSbYE5qJd6fxE-29" value="&lt;font data-font-src=&quot;https://fonts.googleapis.com/css?family=k2d&quot; face=&quot;k2d&quot;&gt;1. Tree Cover Loss&lt;/font&gt;&lt;div&gt;&lt;font face=&quot;k2d&quot;&gt;2. Protected Forest and Conservation Areas&lt;/font&gt;&lt;/div&gt;&lt;div&gt;&lt;font face=&quot;k2d&quot;&gt;3. GLAD Alerts&lt;/font&gt;&lt;/div&gt;" style="text;html=1;align=left;verticalAlign=middle;whiteSpace=wrap;rounded=0;rotation=0;" vertex="1" parent="oew9Gi4oSbYE5qJd6fxE-31">
          <mxGeometry x="15" y="40" width="160" height="60" as="geometry" />
        </mxCell>
        <mxCell id="oew9Gi4oSbYE5qJd6fxE-33" style="edgeStyle=orthogonalEdgeStyle;rounded=0;orthogonalLoop=1;jettySize=auto;html=1;entryX=0.5;entryY=0;entryDx=0;entryDy=0;" edge="1" parent="1">
          <mxGeometry relative="1" as="geometry">
            <mxPoint x="-720" y="1130" as="sourcePoint" />
            <mxPoint x="-720" y="1270" as="targetPoint" />
          </mxGeometry>
        </mxCell>
        <mxCell id="oew9Gi4oSbYE5qJd6fxE-34" style="edgeStyle=orthogonalEdgeStyle;rounded=0;orthogonalLoop=1;jettySize=auto;html=1;entryX=0;entryY=0.5;entryDx=0;entryDy=0;entryPerimeter=0;endArrow=none;endFill=0;" edge="1" parent="1">
          <mxGeometry relative="1" as="geometry">
            <mxPoint x="-1150" y="1080" as="sourcePoint" />
            <mxPoint x="-1010" y="1080" as="targetPoint" />
          </mxGeometry>
        </mxCell>
        <mxCell id="oew9Gi4oSbYE5qJd6fxE-35" style="edgeStyle=orthogonalEdgeStyle;rounded=0;orthogonalLoop=1;jettySize=auto;html=1;entryX=0;entryY=0.5;entryDx=0;entryDy=0;entryPerimeter=0;endArrow=none;endFill=0;" edge="1" parent="1">
          <mxGeometry relative="1" as="geometry">
            <mxPoint x="-1150" y="1120" as="sourcePoint" />
            <mxPoint x="-1010" y="1120" as="targetPoint" />
          </mxGeometry>
        </mxCell>
        <mxCell id="oew9Gi4oSbYE5qJd6fxE-38" style="edgeStyle=orthogonalEdgeStyle;rounded=0;orthogonalLoop=1;jettySize=auto;html=1;entryX=0;entryY=0.5;entryDx=0;entryDy=0;" edge="1" parent="1">
          <mxGeometry relative="1" as="geometry">
            <mxPoint x="-950" y="1120" as="sourcePoint" />
            <mxPoint x="-840" y="1120" as="targetPoint" />
          </mxGeometry>
        </mxCell>
        <mxCell id="oew9Gi4oSbYE5qJd6fxE-39" value="&lt;font data-font-src=&quot;https://fonts.googleapis.com/css?family=k2d&quot; face=&quot;k2d&quot; style=&quot;font-size: 11px;&quot;&gt;&lt;font style=&quot;font-size: 11px;&quot; data-font-src=&quot;https://fonts.googleapis.com/css?family=k2d&quot;&gt;Send Array&amp;nbsp;&lt;/font&gt;{lattitude,longtitude}&lt;/font&gt;" style="text;html=1;align=center;verticalAlign=middle;whiteSpace=wrap;rounded=0;" vertex="1" parent="1">
          <mxGeometry x="-1100" y="1020" width="210" height="30" as="geometry" />
        </mxCell>
      </root>
    </mxGraphModel>
  </diagram>
</mxfile>
